# xmcd
#
# Track frame offsets:
#	150
#	11190
#	18138
#	34985
#	44905
#	53464
#	63552
#	75133
#	85874
#	100607
#	124653
#	143971
#	160662
#	172314
#	179533
#	202322
#	216626
#	236931
#	249700
#	266846
#	278564
#	289880
#	302506
#
# Disc length: 4438 seconds
#
# Revision: 1
# Processed by: cddbd v1.5.2PL0 Copyright (c) Steve Scherf et al.
# Submitted via: EasyCDDAExtractor 16.0.8.2
#
DISCID=59115417
DTITLE=Skpewdriver - Skpewdriver-Anthology 1977-1993
DYEAR=1900
DGENRE=Ξένη metal
TTITLE0=You 're so dumb [1977]
TTITLE1=Government action [1977]
TTITLE2=Back with abang [1982]
TTITLE3=Tearing down the wall [1983]
TTITLE4=White power [1983]
TTITLE5=Smash the I.R.A. [1983]
TTITLE6=Voice of Britain [1983]
TTITLE7=When the boats come in [1983]
TTITLE8=Hail the new dawn [1984]
TTITLE9=Free my land [1984]
TTITLE10=Blood and honour [1985]
TTITLE11=I know what i want [1985]
TTITLE12=Don't let them pull you down [1985]
TTITLE13=Street fight [1986]
TTITLE14=The snowfell [1987]
TTITLE15=I can see the fire [1987]
TTITLE16=Built up, knocked down [1987]
TTITLE17=After the fire [1988]
TTITLE18=Sweet home Alabama [1988]
TTITLE19=Out in the cold [1989]
TTITLE20=Strong survive [1990]
TTITLE21=Road to valhalla [1992]
TTITLE22=Night trains [1993]
EXTD=
EXTT0=
EXTT1=
EXTT2=
EXTT3=
EXTT4=
EXTT5=
EXTT6=
EXTT7=
EXTT8=
EXTT9=
EXTT10=
EXTT11=
EXTT12=
EXTT13=
EXTT14=
EXTT15=
EXTT16=
EXTT17=
EXTT18=
EXTT19=
EXTT20=
EXTT21=
EXTT22=
PLAYORDER=
